<mxfile host="app.diagrams.net" modified="2023-11-04T01:55:15.524Z" agent="Mozilla/5.0 (Windows NT 10.0; Win64; x64) AppleWebKit/537.36 (KHTML, like Gecko) Chrome/118.0.0.0 Safari/537.36" etag="IrO3cGdW6AIcYa4fIaxa" version="22.0.8" type="github">
  <diagram name="Página-1" id="5YH8Po29v99QCNVrzPGC">
    <mxGraphModel dx="563" dy="623" grid="1" gridSize="10" guides="1" tooltips="1" connect="1" arrows="1" fold="1" page="1" pageScale="1" pageWidth="827" pageHeight="1169" math="0" shadow="0">
      <root>
        <mxCell id="0" />
        <mxCell id="1" parent="0" />
        <mxCell id="cazhu-MIkGUrAeKI-p6a-21" value="" style="edgeStyle=orthogonalEdgeStyle;rounded=0;orthogonalLoop=1;jettySize=auto;html=1;" edge="1" parent="1" source="cazhu-MIkGUrAeKI-p6a-3">
          <mxGeometry relative="1" as="geometry">
            <mxPoint x="210" y="160" as="targetPoint" />
          </mxGeometry>
        </mxCell>
        <mxCell id="cazhu-MIkGUrAeKI-p6a-3" value="&lt;b&gt;Início&lt;/b&gt;" style="strokeWidth=2;html=1;shape=mxgraph.flowchart.start_1;whiteSpace=wrap;fillColor=#f8cecc;strokeColor=#b85450;" vertex="1" parent="1">
          <mxGeometry x="165" y="80" width="90" height="40" as="geometry" />
        </mxCell>
        <mxCell id="cazhu-MIkGUrAeKI-p6a-46" style="edgeStyle=orthogonalEdgeStyle;rounded=0;orthogonalLoop=1;jettySize=auto;html=1;" edge="1" parent="1" target="cazhu-MIkGUrAeKI-p6a-43">
          <mxGeometry relative="1" as="geometry">
            <mxPoint x="210" y="200" as="sourcePoint" />
          </mxGeometry>
        </mxCell>
        <mxCell id="cazhu-MIkGUrAeKI-p6a-50" style="edgeStyle=orthogonalEdgeStyle;rounded=0;orthogonalLoop=1;jettySize=auto;html=1;" edge="1" parent="1" target="cazhu-MIkGUrAeKI-p6a-44">
          <mxGeometry relative="1" as="geometry">
            <mxPoint x="210" y="360" as="sourcePoint" />
          </mxGeometry>
        </mxCell>
        <mxCell id="cazhu-MIkGUrAeKI-p6a-51" style="edgeStyle=orthogonalEdgeStyle;rounded=0;orthogonalLoop=1;jettySize=auto;html=1;entryX=0.5;entryY=0;entryDx=0;entryDy=0;" edge="1" parent="1" target="cazhu-MIkGUrAeKI-p6a-45">
          <mxGeometry relative="1" as="geometry">
            <mxPoint x="210" y="520" as="sourcePoint" />
          </mxGeometry>
        </mxCell>
        <mxCell id="cazhu-MIkGUrAeKI-p6a-31" value="&lt;b&gt;Fim&lt;/b&gt;" style="ellipse;whiteSpace=wrap;html=1;fillColor=#f8cecc;strokeColor=#b85450;rounded=1;arcSize=14;strokeWidth=2;" vertex="1" parent="1">
          <mxGeometry x="130" y="890" width="160" height="40" as="geometry" />
        </mxCell>
        <mxCell id="cazhu-MIkGUrAeKI-p6a-34" value="&lt;b&gt;Exemplo:&amp;nbsp;&lt;br&gt;nº 1: 5&lt;br&gt;nº 2: 8&lt;br&gt;nº 3: 6&lt;/b&gt;" style="shape=hexagon;perimeter=hexagonPerimeter2;whiteSpace=wrap;html=1;fixedSize=1;align=center;strokeWidth=2;fillColor=#fff2cc;strokeColor=#d6b656;" vertex="1" parent="1">
          <mxGeometry x="350" y="305" width="146" height="70" as="geometry" />
        </mxCell>
        <mxCell id="cazhu-MIkGUrAeKI-p6a-38" value="&lt;b&gt;Exemplo:&lt;br&gt;A soma nº 1 + nº 2 + nº 3.&lt;br&gt;Resultado:&amp;nbsp;&lt;/b&gt;&lt;b style=&quot;border-color: var(--border-color);&quot;&gt;5 + 8 + 6 = 19.&lt;/b&gt;&lt;b&gt;&lt;br&gt;&lt;/b&gt;" style="shape=hexagon;perimeter=hexagonPerimeter2;whiteSpace=wrap;html=1;fixedSize=1;align=center;strokeWidth=2;fillColor=#fff2cc;strokeColor=#d6b656;" vertex="1" parent="1">
          <mxGeometry x="370" y="630" width="210" height="60" as="geometry" />
        </mxCell>
        <mxCell id="cazhu-MIkGUrAeKI-p6a-40" value="&lt;b&gt;Exemplo:&lt;br&gt;A divisão: soma / qtde nº&lt;br&gt;Resultado:&amp;nbsp;&lt;/b&gt;&lt;b style=&quot;border-color: var(--border-color);&quot;&gt;19 / 3 ~= 6,333&amp;nbsp;&lt;/b&gt;&lt;b&gt;&lt;br&gt;&lt;/b&gt;" style="shape=hexagon;perimeter=hexagonPerimeter2;whiteSpace=wrap;html=1;fixedSize=1;align=center;strokeWidth=2;fillColor=#fff2cc;strokeColor=#d6b656;" vertex="1" parent="1">
          <mxGeometry x="370" y="710" width="210" height="60" as="geometry" />
        </mxCell>
        <mxCell id="cazhu-MIkGUrAeKI-p6a-43" value="&lt;b&gt;número 1 (nº 1) - Inteiro&lt;/b&gt;" style="html=1;strokeWidth=2;shape=manualInput;whiteSpace=wrap;rounded=1;size=13;arcSize=11;fillColor=#dae8fc;strokeColor=#6c8ebf;align=center;" vertex="1" parent="1">
          <mxGeometry x="130" y="240" width="160" height="50" as="geometry" />
        </mxCell>
        <mxCell id="cazhu-MIkGUrAeKI-p6a-44" value="&lt;b style=&quot;border-color: var(--border-color);&quot;&gt;número 2 (nº 2) - Inteiro&lt;/b&gt;" style="html=1;strokeWidth=2;shape=manualInput;whiteSpace=wrap;rounded=1;size=13;arcSize=11;fillColor=#dae8fc;strokeColor=#6c8ebf;" vertex="1" parent="1">
          <mxGeometry x="130" y="390" width="160" height="50" as="geometry" />
        </mxCell>
        <mxCell id="cazhu-MIkGUrAeKI-p6a-90" style="edgeStyle=orthogonalEdgeStyle;rounded=0;orthogonalLoop=1;jettySize=auto;html=1;entryX=0.5;entryY=0;entryDx=0;entryDy=0;" edge="1" parent="1" source="cazhu-MIkGUrAeKI-p6a-45" target="cazhu-MIkGUrAeKI-p6a-79">
          <mxGeometry relative="1" as="geometry" />
        </mxCell>
        <mxCell id="cazhu-MIkGUrAeKI-p6a-45" value="&lt;b style=&quot;border-color: var(--border-color);&quot;&gt;número 3 (nº 3) - Inteiro&lt;/b&gt;" style="html=1;strokeWidth=2;shape=manualInput;whiteSpace=wrap;rounded=1;size=13;arcSize=11;fillColor=#dae8fc;strokeColor=#6c8ebf;" vertex="1" parent="1">
          <mxGeometry x="130" y="550" width="160" height="50" as="geometry" />
        </mxCell>
        <mxCell id="cazhu-MIkGUrAeKI-p6a-100" style="edgeStyle=orthogonalEdgeStyle;rounded=0;orthogonalLoop=1;jettySize=auto;html=1;" edge="1" parent="1" source="cazhu-MIkGUrAeKI-p6a-73" target="cazhu-MIkGUrAeKI-p6a-80">
          <mxGeometry relative="1" as="geometry">
            <mxPoint x="155" y="770" as="targetPoint" />
            <Array as="points">
              <mxPoint x="155" y="780" />
              <mxPoint x="155" y="780" />
            </Array>
          </mxGeometry>
        </mxCell>
        <mxCell id="cazhu-MIkGUrAeKI-p6a-73" value="&lt;b&gt;Soma&lt;/b&gt;" style="strokeWidth=2;html=1;shape=mxgraph.flowchart.display;whiteSpace=wrap;fillColor=#d5e8d4;strokeColor=#82b366;" vertex="1" parent="1">
          <mxGeometry x="90" y="810" width="130" height="40" as="geometry" />
        </mxCell>
        <mxCell id="cazhu-MIkGUrAeKI-p6a-78" style="edgeStyle=orthogonalEdgeStyle;rounded=0;orthogonalLoop=1;jettySize=auto;html=1;entryX=0.5;entryY=0;entryDx=0;entryDy=0;" edge="1" parent="1" source="cazhu-MIkGUrAeKI-p6a-76" target="cazhu-MIkGUrAeKI-p6a-31">
          <mxGeometry relative="1" as="geometry" />
        </mxCell>
        <mxCell id="cazhu-MIkGUrAeKI-p6a-76" value="&lt;b&gt;Divisão&lt;/b&gt;" style="strokeWidth=2;html=1;shape=mxgraph.flowchart.display;whiteSpace=wrap;fillColor=#d5e8d4;strokeColor=#82b366;" vertex="1" parent="1">
          <mxGeometry x="230" y="810" width="130" height="40" as="geometry" />
        </mxCell>
        <mxCell id="cazhu-MIkGUrAeKI-p6a-88" style="edgeStyle=orthogonalEdgeStyle;rounded=0;orthogonalLoop=1;jettySize=auto;html=1;entryX=0;entryY=0.5;entryDx=0;entryDy=0;" edge="1" parent="1" source="cazhu-MIkGUrAeKI-p6a-79" target="cazhu-MIkGUrAeKI-p6a-38">
          <mxGeometry relative="1" as="geometry" />
        </mxCell>
        <mxCell id="cazhu-MIkGUrAeKI-p6a-79" value="&lt;span style=&quot;border-color: var(--border-color);&quot;&gt;&lt;b&gt;Faça a soma (+) dos números (nº&lt;/b&gt;&lt;/span&gt;&lt;span style=&quot;border-color: var(--border-color);&quot;&gt;&lt;b&gt;)!&lt;br&gt;soma = nº1 + nº2 + nº3&lt;/b&gt;&lt;br&gt;&lt;/span&gt;" style="rounded=1;whiteSpace=wrap;html=1;absoluteArcSize=1;arcSize=0;strokeWidth=2;fillColor=#d5e8d4;strokeColor=#82b366;" vertex="1" parent="1">
          <mxGeometry x="90" y="640" width="240" height="40" as="geometry" />
        </mxCell>
        <mxCell id="cazhu-MIkGUrAeKI-p6a-80" value="&lt;b&gt;&lt;span style=&quot;border-color: var(--border-color);&quot;&gt;Faça a divisão (/) com números (nº)!&lt;br&gt;&lt;/span&gt;divisão = soma / total_nº&lt;/b&gt;" style="rounded=1;whiteSpace=wrap;html=1;absoluteArcSize=1;arcSize=0;strokeWidth=2;fillColor=#d5e8d4;strokeColor=#82b366;" vertex="1" parent="1">
          <mxGeometry x="90" y="720" width="240" height="40" as="geometry" />
        </mxCell>
        <mxCell id="cazhu-MIkGUrAeKI-p6a-89" style="edgeStyle=orthogonalEdgeStyle;rounded=0;orthogonalLoop=1;jettySize=auto;html=1;entryX=0;entryY=0.5;entryDx=0;entryDy=0;" edge="1" parent="1" source="cazhu-MIkGUrAeKI-p6a-80" target="cazhu-MIkGUrAeKI-p6a-40">
          <mxGeometry relative="1" as="geometry">
            <mxPoint x="350" y="820" as="targetPoint" />
          </mxGeometry>
        </mxCell>
        <mxCell id="cazhu-MIkGUrAeKI-p6a-94" value="&lt;font style=&quot;font-size: 24px;&quot;&gt;&lt;b&gt;ENTRADAS&lt;/b&gt;&lt;/font&gt;" style="text;strokeColor=none;align=center;fillColor=none;html=1;verticalAlign=middle;whiteSpace=wrap;rounded=0;rotation=-90;" vertex="1" parent="1">
          <mxGeometry x="10" y="345" width="60" height="30" as="geometry" />
        </mxCell>
        <mxCell id="cazhu-MIkGUrAeKI-p6a-96" value="&lt;font style=&quot;font-size: 24px;&quot;&gt;&lt;b&gt;PROCESSAMENTO&lt;br&gt;&lt;/b&gt;&lt;/font&gt;" style="text;strokeColor=none;align=center;fillColor=none;html=1;verticalAlign=middle;whiteSpace=wrap;rounded=0;rotation=-90;" vertex="1" parent="1">
          <mxGeometry x="10" y="645" width="60" height="30" as="geometry" />
        </mxCell>
        <mxCell id="cazhu-MIkGUrAeKI-p6a-97" style="edgeStyle=orthogonalEdgeStyle;rounded=0;orthogonalLoop=1;jettySize=auto;html=1;entryX=0.5;entryY=1;entryDx=0;entryDy=0;entryPerimeter=0;" edge="1" parent="1" source="cazhu-MIkGUrAeKI-p6a-79" target="cazhu-MIkGUrAeKI-p6a-73">
          <mxGeometry relative="1" as="geometry">
            <Array as="points">
              <mxPoint x="210" y="700" />
              <mxPoint x="70" y="700" />
              <mxPoint x="70" y="880" />
              <mxPoint x="155" y="880" />
            </Array>
          </mxGeometry>
        </mxCell>
        <mxCell id="cazhu-MIkGUrAeKI-p6a-99" style="edgeStyle=orthogonalEdgeStyle;rounded=0;orthogonalLoop=1;jettySize=auto;html=1;entryX=0.5;entryY=0;entryDx=0;entryDy=0;entryPerimeter=0;" edge="1" parent="1" source="cazhu-MIkGUrAeKI-p6a-80" target="cazhu-MIkGUrAeKI-p6a-76">
          <mxGeometry relative="1" as="geometry">
            <Array as="points">
              <mxPoint x="295" y="780" />
              <mxPoint x="295" y="780" />
            </Array>
          </mxGeometry>
        </mxCell>
        <mxCell id="cazhu-MIkGUrAeKI-p6a-101" value="&lt;font style=&quot;font-size: 24px;&quot;&gt;&lt;b&gt;SAÍDA&lt;br&gt;&lt;/b&gt;&lt;/font&gt;" style="text;strokeColor=none;align=center;fillColor=none;html=1;verticalAlign=middle;whiteSpace=wrap;rounded=0;rotation=-90;" vertex="1" parent="1">
          <mxGeometry x="10" y="835" width="60" height="30" as="geometry" />
        </mxCell>
        <mxCell id="cazhu-MIkGUrAeKI-p6a-112" style="edgeStyle=orthogonalEdgeStyle;rounded=0;orthogonalLoop=1;jettySize=auto;html=1;entryX=0.5;entryY=0;entryDx=0;entryDy=0;" edge="1" parent="1" source="cazhu-MIkGUrAeKI-p6a-104" target="cazhu-MIkGUrAeKI-p6a-34">
          <mxGeometry relative="1" as="geometry" />
        </mxCell>
        <mxCell id="cazhu-MIkGUrAeKI-p6a-104" value="&lt;b&gt;Digite o primeiro número:&lt;br&gt;&lt;/b&gt;" style="strokeWidth=2;html=1;shape=mxgraph.flowchart.display;whiteSpace=wrap;fillColor=#dae8fc;strokeColor=#6c8ebf;" vertex="1" parent="1">
          <mxGeometry x="110" y="160" width="200" height="40" as="geometry" />
        </mxCell>
        <mxCell id="cazhu-MIkGUrAeKI-p6a-114" style="edgeStyle=orthogonalEdgeStyle;rounded=0;orthogonalLoop=1;jettySize=auto;html=1;entryX=0;entryY=0.5;entryDx=0;entryDy=0;" edge="1" parent="1" source="cazhu-MIkGUrAeKI-p6a-105" target="cazhu-MIkGUrAeKI-p6a-34">
          <mxGeometry relative="1" as="geometry" />
        </mxCell>
        <mxCell id="cazhu-MIkGUrAeKI-p6a-105" value="&lt;b&gt;Digite o segundo número:&lt;br&gt;&lt;/b&gt;" style="strokeWidth=2;html=1;shape=mxgraph.flowchart.display;whiteSpace=wrap;fillColor=#dae8fc;strokeColor=#6c8ebf;" vertex="1" parent="1">
          <mxGeometry x="110" y="320" width="200" height="40" as="geometry" />
        </mxCell>
        <mxCell id="cazhu-MIkGUrAeKI-p6a-113" style="edgeStyle=orthogonalEdgeStyle;rounded=0;orthogonalLoop=1;jettySize=auto;html=1;entryX=0.5;entryY=1;entryDx=0;entryDy=0;" edge="1" parent="1" source="cazhu-MIkGUrAeKI-p6a-109" target="cazhu-MIkGUrAeKI-p6a-34">
          <mxGeometry relative="1" as="geometry" />
        </mxCell>
        <mxCell id="cazhu-MIkGUrAeKI-p6a-109" value="&lt;b&gt;Digite o terceiro número:&lt;br&gt;&lt;/b&gt;" style="strokeWidth=2;html=1;shape=mxgraph.flowchart.display;whiteSpace=wrap;fillColor=#dae8fc;strokeColor=#6c8ebf;" vertex="1" parent="1">
          <mxGeometry x="110" y="480" width="200" height="40" as="geometry" />
        </mxCell>
        <mxCell id="cazhu-MIkGUrAeKI-p6a-110" style="edgeStyle=orthogonalEdgeStyle;rounded=0;orthogonalLoop=1;jettySize=auto;html=1;entryX=0.5;entryY=0;entryDx=0;entryDy=0;entryPerimeter=0;" edge="1" parent="1" source="cazhu-MIkGUrAeKI-p6a-43" target="cazhu-MIkGUrAeKI-p6a-105">
          <mxGeometry relative="1" as="geometry" />
        </mxCell>
        <mxCell id="cazhu-MIkGUrAeKI-p6a-111" style="edgeStyle=orthogonalEdgeStyle;rounded=0;orthogonalLoop=1;jettySize=auto;html=1;entryX=0.5;entryY=0;entryDx=0;entryDy=0;entryPerimeter=0;" edge="1" parent="1" source="cazhu-MIkGUrAeKI-p6a-44" target="cazhu-MIkGUrAeKI-p6a-109">
          <mxGeometry relative="1" as="geometry" />
        </mxCell>
        <mxCell id="cazhu-MIkGUrAeKI-p6a-121" style="edgeStyle=orthogonalEdgeStyle;rounded=0;orthogonalLoop=1;jettySize=auto;html=1;entryX=0;entryY=0.5;entryDx=0;entryDy=0;" edge="1" parent="1" target="cazhu-MIkGUrAeKI-p6a-118">
          <mxGeometry relative="1" as="geometry">
            <mxPoint x="490" y="150" as="sourcePoint" />
            <Array as="points">
              <mxPoint x="470" y="150" />
              <mxPoint x="470" y="180" />
            </Array>
          </mxGeometry>
        </mxCell>
        <mxCell id="cazhu-MIkGUrAeKI-p6a-122" style="edgeStyle=orthogonalEdgeStyle;rounded=0;orthogonalLoop=1;jettySize=auto;html=1;exitX=0.5;exitY=1;exitDx=0;exitDy=0;entryX=0;entryY=0.5;entryDx=0;entryDy=0;" edge="1" parent="1" target="cazhu-MIkGUrAeKI-p6a-119">
          <mxGeometry relative="1" as="geometry">
            <mxPoint x="519.5" y="190" as="sourcePoint" />
            <Array as="points">
              <mxPoint x="470" y="190" />
              <mxPoint x="470" y="220" />
            </Array>
          </mxGeometry>
        </mxCell>
      </root>
    </mxGraphModel>
  </diagram>
</mxfile>
